HIERARCHY
ROOT Hips
{
	OFFSET -0.001795 -0.223333 0.028219
	CHANNELS 6 Xposition Yposition Zposition Zrotation Yrotation Xrotation 
	JOINT LeftUpLeg
	{
		OFFSET 0.069520 -0.091406 -0.006815
		CHANNELS 3 Zrotation Yrotation Xrotation
		JOINT LeftLeg
		{
			OFFSET 0.034277 -0.375199 -0.004496
			CHANNELS 3 Zrotation Yrotation Xrotation
			JOINT LeftFoot
			{
				OFFSET -0.013596 -0.397961 -0.043693
				CHANNELS 3 Zrotation Yrotation Xrotation
				JOINT LeftToe
				{
					OFFSET 0.026358 -0.055791 0.119288
					CHANNELS 3 Zrotation Yrotation Xrotation
					End Site
					{
						OFFSET 0.000000 0.000000 0.000000
					}
				}
			}
		}
	}
	JOINT RightUpLeg
	{
		OFFSET -0.067670 -0.090522 -0.004320
		CHANNELS 3 Zrotation Yrotation Xrotation
		JOINT RightLeg
		{
			OFFSET -0.038290 -0.382569 -0.008850
			CHANNELS 3 Zrotation Yrotation Xrotation
			JOINT RightFoot
			{
				OFFSET 0.015774 -0.398415 -0.042312
				CHANNELS 3 Zrotation Yrotation Xrotation
				JOINT RightToe
				{
					OFFSET -0.025372 -0.048144 0.123348
					CHANNELS 3 Zrotation Yrotation Xrotation
					End Site
					{
						OFFSET 0.000000 0.000000 0.000000
					}
				}
			}
		}
	}
	JOINT Spine
	{
		OFFSET -0.002533 0.108963 -0.026696
		CHANNELS 3 Zrotation Yrotation Xrotation
		JOINT Spine1
		{
			OFFSET 0.005487 0.135180 0.001092
			CHANNELS 3 Zrotation Yrotation Xrotation
			JOINT Spine2
			{
				OFFSET 0.001457 0.052922 0.025425
				CHANNELS 3 Zrotation Yrotation Xrotation
				JOINT Neck
				{
					OFFSET -0.002778 0.213870 -0.042857
					CHANNELS 3 Zrotation Yrotation Xrotation
					JOINT Head
					{
						OFFSET 0.005152 0.064970 0.051349
						CHANNELS 3 Zrotation Yrotation Xrotation
						End Site
						{
							OFFSET 0.000000 0.000000 0.000000
						}
					}
				}
				JOINT LeftShoulder
				{
					OFFSET 0.078845 0.121749 -0.034090
					CHANNELS 3 Zrotation Yrotation Xrotation
					JOINT LeftArm
					{
						OFFSET 0.090977 0.030469 -0.008868
						CHANNELS 3 Zrotation Yrotation Xrotation
						JOINT LeftForeArm
						{
							OFFSET 0.259612 -0.012772 -0.027456
							CHANNELS 3 Zrotation Yrotation Xrotation
							JOINT LeftHand
							{
								OFFSET 0.249234 0.008986 -0.001171
								CHANNELS 3 Zrotation Yrotation Xrotation
								End Site
								{
									OFFSET 0.000000 0.000000 0.000000
								}
							}
						}
					}
				}
				JOINT RightShoulder
				{
					OFFSET -0.081759 0.118833 -0.038615
					CHANNELS 3 Zrotation Yrotation Xrotation
					JOINT RightArm
					{
						OFFSET -0.096012 0.032551 -0.009143
						CHANNELS 3 Zrotation Yrotation Xrotation
						JOINT RightForeArm
						{
							OFFSET -0.253742 -0.013329 -0.021401
							CHANNELS 3 Zrotation Yrotation Xrotation
							JOINT RightHand
							{
								OFFSET -0.255298 0.007772 -0.005559
								CHANNELS 3 Zrotation Yrotation Xrotation
								End Site
								{
									OFFSET 0.000000 0.000000 0.000000
								}
							}
						}
					}
				}
			}
		}
	}
}
MOTION
Frames: 13
Frame Time: 0.050000
-1.385634 0.932976 1.835473 -14.405414 -63.823385 4.955062 -0.289582 1.170460 6.018141 22.731389 7.872724 60.557785 -16.786661 -20.401740 18.835733 0.000000 0.000000 0.000000 -3.540045 3.660065 -22.763314 18.293568 2.433902 25.719338 -6.881003 -15.496140 2.151214 0.000000 0.000000 0.000000 2.148552 0.656428 17.718681 -5.498706 4.440150 4.789707 9.920597 -12.058056 -1.853444 -17.797650 10.711994 -13.405680 0.000000 0.000000 0.000000 -22.354610 15.984001 -2.638085 -51.097216 -4.695100 -4.591585 -87.525586 -84.333523 104.481111 0.000000 0.000000 0.000000 8.499677 1.383351 -4.767617 36.365242 -5.469257 -4.490903 49.580394 55.887556 18.653181 0.000000 0.000000 0.000000 
-1.486631 0.912035 1.903397 -10.761029 -61.307038 -2.534332 3.041122 0.792364 -4.348396 28.964304 6.322188 77.615344 -18.109943 -19.283526 21.068758 0.000000 0.000000 0.000000 -3.841181 1.761735 -14.825227 11.179856 3.602991 29.818517 -5.224902 -8.257178 -2.066794 0.000000 0.000000 0.000000 -1.586889 1.674372 20.789281 -6.100572 4.804111 5.262316 12.602538 -7.762652 -1.909981 -16.482534 10.353025 -12.171565 0.000000 0.000000 0.000000 -27.350468 16.028284 -3.241772 -47.699765 -0.644405 -7.071210 -64.437726 -79.590462 73.183341 0.000000 0.000000 0.000000 9.739227 0.603283 -4.868250 36.778588 -2.117150 -3.281831 50.514287 63.188695 23.847026 0.000000 0.000000 0.000000 
-1.581740 0.881581 1.968650 -10.389706 -58.429026 -9.425889 7.471522 2.606625 -13.083965 29.220387 3.038714 84.005100 -16.346473 -21.997716 12.924635 0.000000 0.000000 0.000000 -2.190764 0.423345 -3.551495 8.352537 6.572860 39.743240 -9.975896 -9.789065 -12.864195 0.000000 0.000000 0.000000 -2.142915 3.276366 27.689281 -7.382294 4.800564 3.415132 14.127685 -2.960724 -0.794409 -16.843569 11.176914 -11.684757 0.000000 0.000000 0.000000 -27.573271 17.530971 -6.148189 -45.985094 3.355968 -8.196412 -57.265981 -72.733417 57.516423 0.000000 0.000000 0.000000 10.430793 0.268445 -4.436544 37.454268 1.354282 -2.258904 50.867352 70.240668 29.130981 0.000000 0.000000 0.000000 
-1.667281 0.863066 2.037544 -9.407996 -55.350590 -13.363246 7.534849 4.296602 -23.393098 17.259983 8.639059 76.443729 -3.679103 -9.700470 -4.940009 0.000000 0.000000 0.000000 -4.663361 0.798349 5.936936 11.044704 5.756780 43.002287 -12.159912 -12.435590 -19.102595 0.000000 0.000000 0.000000 -3.328185 3.514273 28.456215 -8.401646 5.048784 2.329277 13.369909 0.419439 2.284817 -15.863206 10.507439 -12.716890 0.000000 0.000000 0.000000 -29.612371 19.110690 -8.540948 -41.653875 7.788660 -9.053257 -47.072535 -71.618656 45.678101 0.000000 0.000000 0.000000 10.588653 1.486033 -3.477504 38.928969 3.437627 -1.838446 45.511463 71.272352 26.791372 0.000000 0.000000 0.000000 
-1.743675 0.864046 2.116137 -8.814631 -52.029198 -14.136468 3.938690 3.081554 -27.100764 1.417906 9.858028 48.322855 3.337344 6.689147 0.784946 0.000000 0.000000 0.000000 -5.657478 2.348627 17.224934 10.017312 4.101772 39.652630 -9.841448 -7.647828 -17.892028 0.000000 0.000000 0.000000 -4.083672 2.919185 26.315825 -11.447597 6.852853 1.963760 14.653923 5.101967 0.376603 -16.391776 11.859849 -8.856332 0.000000 0.000000 0.000000 -28.009867 18.991184 -9.836234 -39.391148 10.646333 -8.765862 -37.083916 -70.531485 35.073619 0.000000 0.000000 0.000000 9.520803 -0.345766 -3.153826 42.459113 1.756130 -2.882536 46.139310 67.512262 26.787714 0.000000 0.000000 0.000000 
-1.811384 0.869606 2.206375 -10.907859 -47.183169 -13.711951 -0.574522 0.059356 -21.439750 -3.680195 3.778360 21.779426 8.959261 13.181591 22.766377 0.000000 0.000000 0.000000 -7.472810 4.012417 24.725212 13.275494 1.799741 39.084600 -1.494837 0.163414 -4.262679 0.000000 0.000000 0.000000 -2.700869 1.648873 22.876808 -10.102651 5.586572 0.681944 12.390239 6.658425 1.499920 -16.878482 13.799968 -3.599434 0.000000 0.000000 0.000000 -25.756653 21.603973 -11.946501 -38.972189 13.706668 -9.135237 -33.991952 -67.715125 30.279163 0.000000 0.000000 0.000000 9.735307 -0.901958 -3.106956 43.249425 -0.978744 -4.142585 48.661278 59.902660 25.531121 0.000000 0.000000 0.000000 
-1.867715 0.870359 2.298478 -12.028264 -41.570339 -15.631945 -6.251034 -1.758923 -13.479542 -2.267297 1.630584 14.580222 11.072402 16.054736 27.478639 0.000000 0.000000 0.000000 -9.276198 3.845322 24.933850 15.626139 1.545079 49.304708 0.227389 -5.219741 8.903177 0.000000 0.000000 0.000000 -1.954352 1.038291 21.614483 -10.084859 5.277603 -0.587754 11.493298 7.305822 4.176155 -16.348907 14.538407 0.013684 0.000000 0.000000 0.000000 -21.711232 20.445983 -10.942233 -42.627744 14.712484 -10.246924 -31.389459 -67.405602 27.874518 0.000000 0.000000 0.000000 13.403668 -2.012893 -4.213553 43.319700 -5.138054 -5.630045 46.361448 58.471428 24.619820 0.000000 0.000000 0.000000 
-1.912151 0.866911 2.378690 -11.648038 -34.316307 -18.014147 -12.855548 -1.881364 -6.141836 -3.967199 2.147201 16.338665 13.536324 22.527174 18.832660 0.000000 0.000000 0.000000 -11.231379 2.379478 18.418721 17.481124 1.430298 63.824044 -2.208619 -11.152744 15.410785 0.000000 0.000000 0.000000 -2.832454 0.793377 21.040558 -10.096246 5.523657 0.616207 10.413000 5.405335 5.194366 -17.098477 13.923134 -4.663954 0.000000 0.000000 0.000000 -18.451757 18.822578 -9.651800 -44.218867 10.825049 -9.315727 -27.535355 -65.681099 24.103648 0.000000 0.000000 0.000000 16.535611 -0.860518 -4.281748 44.624143 -6.078190 -6.086056 35.897802 54.935617 17.678337 0.000000 0.000000 0.000000 
-1.944363 0.868452 2.445496 -11.531350 -25.231424 -19.446835 -16.716939 -0.982806 -0.937688 -4.289325 2.197042 20.350394 10.098394 19.052573 15.227040 0.000000 0.000000 0.000000 -10.992473 0.716649 9.548808 16.739311 0.280467 71.824111 -5.677263 -15.814143 11.461381 0.000000 0.000000 0.000000 -4.060377 0.704900 22.433238 -7.826897 4.231080 1.002203 7.762501 2.768493 4.826384 -15.670061 12.450861 -5.909287 0.000000 0.000000 0.000000 -18.134754 15.614269 -8.121745 -45.067363 6.976387 -8.285244 -24.353373 -67.163192 22.006105 0.000000 0.000000 0.000000 19.433556 -0.160667 -4.244956 45.523284 -8.334279 -7.088050 29.784468 48.756659 13.075610 0.000000 0.000000 0.000000 
-1.966492 0.874525 2.502532 -12.778500 -15.170047 -19.702250 -17.539670 0.279617 4.135646 -2.457027 0.937280 22.544072 6.865696 14.881549 12.710690 0.000000 0.000000 0.000000 -6.912527 0.002981 -1.163216 10.603272 1.122752 73.313137 -5.370342 -14.592993 7.405510 0.000000 0.000000 0.000000 -3.036623 0.098490 23.950311 -6.892395 3.783910 1.828961 6.709496 -1.242726 4.217651 -16.833339 13.321315 -6.000983 0.000000 0.000000 0.000000 -17.980552 11.502919 -6.063818 -45.997426 1.797356 -6.681864 -23.952009 -66.551738 21.235804 0.000000 0.000000 0.000000 20.483956 -0.299989 -4.304666 46.577803 -10.586900 -8.171421 24.684514 42.956237 9.535538 0.000000 0.000000 0.000000 
-1.981031 0.883368 2.552870 -15.110736 -4.154626 -20.390682 -16.091102 1.630135 10.206850 -0.208658 -0.629761 22.636374 2.529215 8.298705 10.472783 0.000000 0.000000 0.000000 -2.360084 0.613388 -8.488055 4.939098 -0.198278 63.865738 -6.157158 -15.931698 7.156032 0.000000 0.000000 0.000000 -1.464193 -0.808252 25.368689 -4.020604 2.186973 3.215684 5.082990 -4.352605 3.820414 -15.054745 11.405918 -8.572937 0.000000 0.000000 0.000000 -17.372814 9.526953 -5.367037 -47.494232 -4.448073 -4.401358 -27.730090 -68.916029 24.130773 0.000000 0.000000 0.000000 19.897016 -0.324685 -3.556940 47.412323 -12.260015 -9.201605 22.452611 38.219955 7.990929 0.000000 0.000000 0.000000 
-1.990811 0.889791 2.598451 -17.860429 6.882195 -20.380359 -13.428815 2.187406 15.254565 2.917777 -2.141595 21.452892 -2.029737 1.114435 9.275574 0.000000 0.000000 0.000000 1.690058 1.639403 -14.643190 0.280054 -0.946000 49.485800 -2.840332 -8.416792 6.448329 0.000000 0.000000 0.000000 -0.784342 -1.867606 27.751207 -1.246883 0.646308 1.554423 5.262558 -6.207281 4.563662 -13.997013 10.483385 -10.638968 0.000000 0.000000 0.000000 -16.329377 6.480740 -4.229928 -48.832139 -11.725209 -1.494882 -28.520419 -70.737760 24.387380 0.000000 0.000000 0.000000 16.997343 -1.653098 -2.922787 50.441040 -11.672823 -10.020442 18.561659 33.135582 6.100683 0.000000 0.000000 0.000000 
-1.993707 0.885351 2.641688 -20.126042 15.895419 -20.830599 -9.722397 1.775534 18.204452 3.582438 -2.821400 22.121654 -1.824408 -2.570405 1.402201 0.000000 0.000000 0.000000 4.364971 2.347822 -19.495704 0.264660 -1.844415 36.370251 1.805434 3.341018 2.430996 0.000000 0.000000 0.000000 0.520469 -3.139676 29.645779 1.043969 -0.486976 0.603914 4.277213 -6.629718 6.037310 -13.905424 10.678467 -10.377626 0.000000 0.000000 0.000000 -15.259442 2.414194 -2.796357 -48.528870 -17.244865 0.820386 -28.175287 -75.825373 24.857711 0.000000 0.000000 0.000000 16.863859 -2.291660 -2.365648 49.647266 -11.464931 -9.988505 18.032046 32.409023 6.236624 0.000000 0.000000 0.000000 
